<svg xmlns="http://www.w3.org/2000/svg" xmlns:xlink="http://www.w3.org/1999/xlink" preserveAspectRatio="xMidYMid" width="34.813" height="34.94" viewBox="0 0 34.813 34.94">
  <defs>
    <style>
      .cls-1 {
        fill: #fff;
        fill-rule: evenodd;
      }
    </style>
  </defs>
  <path d="M34.697,15.760 C34.518,16.115 34.162,16.344 33.768,16.358 L27.537,16.582 L23.682,21.603 C23.475,21.874 23.157,22.028 22.825,22.028 C22.770,22.028 22.714,22.024 22.658,22.015 C22.268,21.954 21.942,21.684 21.806,21.310 L19.977,16.258 C19.930,16.345 19.886,16.435 19.813,16.508 L1.831,34.620 C1.620,34.834 1.342,34.940 1.065,34.940 C0.788,34.940 0.510,34.834 0.298,34.620 C-0.125,34.193 -0.125,33.503 0.298,33.076 L18.280,14.965 C18.312,14.933 18.353,14.920 18.388,14.892 L13.717,13.205 C13.344,13.072 13.074,12.745 13.011,12.351 C12.949,11.959 13.103,11.562 13.414,11.318 L18.377,7.407 L18.564,1.062 C18.577,0.665 18.803,0.305 19.154,0.123 C19.504,-0.060 19.925,-0.033 20.254,0.189 L25.481,3.735 L31.529,1.957 C31.912,1.845 32.318,1.949 32.598,2.231 C32.878,2.511 32.984,2.922 32.876,3.305 L31.143,9.407 L34.625,14.652 C34.847,14.981 34.875,15.406 34.697,15.760 ZM29.065,10.215 C28.884,9.946 28.830,9.611 28.918,9.299 L30.251,4.608 L25.601,5.976 C25.294,6.065 24.959,6.014 24.691,5.833 L20.673,3.107 L20.530,7.985 C20.519,8.309 20.367,8.612 20.113,8.812 L16.298,11.817 L20.858,13.464 C21.162,13.574 21.401,13.813 21.511,14.118 L23.170,18.701 L26.133,14.842 C26.330,14.585 26.631,14.429 26.953,14.419 L31.794,14.246 L29.065,10.215 Z" class="cls-1"/>
</svg>
