<svg xmlns="http://www.w3.org/2000/svg" xmlns:xlink="http://www.w3.org/1999/xlink" preserveAspectRatio="xMidYMid" width="42" height="34" viewBox="0 0 42 34">
  <defs>
    <style>
      .cls-1 {
        fill: #fff;
        fill-rule: evenodd;
      }
    </style>
  </defs>
  <path d="M39.375,27.457 L22.312,27.457 L22.312,31.386 L28.875,31.386 C29.600,31.386 30.188,31.971 30.188,32.693 C30.188,33.415 29.600,34.000 28.875,34.000 L13.125,34.000 C12.400,34.000 11.813,33.415 11.813,32.693 C11.813,31.971 12.400,31.386 13.125,31.386 L19.688,31.386 L19.688,27.457 L2.625,27.457 C1.182,27.457 0.000,26.280 0.000,24.842 L0.000,2.614 C0.000,1.177 1.182,-0.000 2.625,-0.000 L39.375,-0.000 C40.818,-0.000 42.000,1.177 42.000,2.614 L42.000,24.842 C42.000,26.280 40.818,27.457 39.375,27.457 ZM39.375,2.614 L2.625,2.614 L2.625,24.842 L39.375,24.842 L39.375,2.614 Z" class="cls-1"/>
</svg>
