<svg xmlns="http://www.w3.org/2000/svg" xmlns:xlink="http://www.w3.org/1999/xlink" preserveAspectRatio="xMidYMid" width="35" height="35" viewBox="0 0 35 35">
  <defs>
    <style>
      .cls-1 {
        fill: #fff;
        fill-rule: evenodd;
      }
    </style>
  </defs>
  <path d="M32.812,15.287 L32.812,31.718 C32.812,33.528 31.341,35.000 29.531,35.000 C27.722,35.000 26.250,33.528 26.250,31.718 L26.250,15.287 C24.929,14.289 24.062,12.721 24.062,10.938 C24.062,9.153 24.929,7.586 26.250,6.586 L26.250,3.281 C26.250,1.472 27.722,-0.000 29.531,-0.000 C31.341,-0.000 32.812,1.472 32.812,3.281 L32.812,6.586 C34.134,7.586 35.000,9.153 35.000,10.938 C35.000,12.721 34.134,14.289 32.812,15.287 ZM28.437,31.718 C28.437,32.323 28.927,32.812 29.531,32.812 C30.136,32.812 30.625,32.323 30.625,31.718 L30.625,16.295 C30.271,16.368 29.906,16.406 29.531,16.406 C29.156,16.406 28.791,16.368 28.437,16.295 L28.437,31.718 ZM30.625,3.281 C30.625,2.677 30.136,2.187 29.531,2.187 C28.927,2.187 28.437,2.677 28.437,3.281 L28.437,5.578 C28.791,5.507 29.156,5.469 29.531,5.469 C29.906,5.469 30.271,5.507 30.625,5.578 L30.625,3.281 ZM32.665,10.017 C32.648,9.959 32.632,9.901 32.612,9.845 C32.508,9.557 32.375,9.284 32.198,9.039 C32.194,9.032 32.188,9.028 32.183,9.021 C31.993,8.763 31.767,8.530 31.509,8.336 C31.505,8.334 31.502,8.329 31.499,8.327 C31.235,8.130 30.941,7.970 30.625,7.857 C30.281,7.735 29.917,7.657 29.531,7.657 C29.146,7.657 28.781,7.735 28.437,7.857 C28.121,7.970 27.828,8.130 27.564,8.327 C27.561,8.329 27.557,8.334 27.553,8.336 C27.296,8.530 27.069,8.763 26.879,9.021 C26.875,9.028 26.868,9.032 26.864,9.039 C26.688,9.284 26.554,9.557 26.451,9.845 C26.430,9.901 26.415,9.959 26.397,10.017 C26.310,10.309 26.250,10.615 26.250,10.938 C26.250,11.258 26.310,11.563 26.397,11.856 C26.415,11.914 26.430,11.971 26.451,12.029 C26.554,12.318 26.688,12.591 26.864,12.835 C26.868,12.841 26.875,12.845 26.879,12.852 C27.069,13.112 27.296,13.343 27.553,13.537 C27.557,13.542 27.561,13.544 27.564,13.546 C27.828,13.745 28.121,13.905 28.437,14.016 C28.781,14.139 29.146,14.219 29.531,14.219 C29.917,14.219 30.281,14.139 30.625,14.016 C30.941,13.905 31.235,13.745 31.499,13.546 C31.502,13.544 31.505,13.542 31.509,13.537 C31.767,13.343 31.993,13.112 32.183,12.852 C32.188,12.845 32.194,12.841 32.198,12.835 C32.375,12.591 32.508,12.318 32.612,12.029 C32.632,11.971 32.648,11.914 32.665,11.856 C32.753,11.563 32.812,11.258 32.812,10.938 C32.812,10.615 32.753,10.309 32.665,10.017 ZM20.781,28.412 L20.781,31.718 C20.781,33.528 19.309,35.000 17.500,35.000 C15.691,35.000 14.219,33.528 14.219,31.718 L14.219,28.412 C12.898,27.414 12.031,25.846 12.031,24.063 C12.031,22.278 12.898,20.711 14.219,19.711 L14.219,3.281 C14.219,1.472 15.691,-0.000 17.500,-0.000 C19.309,-0.000 20.781,1.472 20.781,3.281 L20.781,19.711 C22.102,20.711 22.969,22.278 22.969,24.063 C22.969,25.846 22.102,27.414 20.781,28.412 ZM16.406,31.718 C16.406,32.323 16.895,32.812 17.500,32.812 C18.104,32.812 18.594,32.323 18.594,31.718 L18.594,29.420 C18.240,29.493 17.875,29.531 17.500,29.531 C17.125,29.531 16.760,29.493 16.406,29.420 L16.406,31.718 ZM18.594,3.281 C18.594,2.677 18.104,2.187 17.500,2.187 C16.895,2.187 16.406,2.677 16.406,3.281 L16.406,18.703 C16.760,18.632 17.125,18.594 17.500,18.594 C17.875,18.594 18.240,18.632 18.594,18.703 L18.594,3.281 ZM20.634,23.142 C20.617,23.084 20.601,23.026 20.580,22.971 C20.477,22.683 20.343,22.409 20.167,22.163 C20.163,22.157 20.156,22.153 20.152,22.146 C19.962,21.888 19.735,21.654 19.478,21.460 C19.474,21.458 19.471,21.454 19.467,21.452 C19.204,21.256 18.910,21.095 18.594,20.982 C18.250,20.860 17.886,20.781 17.500,20.781 C17.114,20.781 16.750,20.860 16.406,20.982 C16.090,21.095 15.796,21.256 15.533,21.452 C15.529,21.454 15.526,21.458 15.522,21.460 C15.264,21.654 15.038,21.888 14.848,22.146 C14.844,22.153 14.837,22.157 14.833,22.163 C14.657,22.409 14.523,22.683 14.420,22.971 C14.399,23.026 14.383,23.084 14.366,23.142 C14.279,23.435 14.219,23.740 14.219,24.063 C14.219,24.383 14.279,24.688 14.366,24.981 C14.383,25.039 14.399,25.096 14.420,25.154 C14.523,25.442 14.657,25.716 14.833,25.960 C14.837,25.966 14.844,25.970 14.848,25.977 C15.038,26.237 15.264,26.468 15.522,26.662 C15.526,26.667 15.529,26.669 15.533,26.671 C15.796,26.869 16.090,27.030 16.406,27.141 C16.750,27.265 17.114,27.344 17.500,27.344 C17.886,27.344 18.250,27.265 18.594,27.141 C18.910,27.030 19.204,26.869 19.467,26.671 C19.471,26.669 19.474,26.667 19.478,26.662 C19.735,26.468 19.962,26.237 20.152,25.977 C20.156,25.970 20.163,25.966 20.167,25.960 C20.343,25.716 20.477,25.442 20.580,25.154 C20.601,25.096 20.617,25.039 20.634,24.981 C20.721,24.688 20.781,24.383 20.781,24.063 C20.781,23.740 20.721,23.435 20.634,23.142 ZM8.750,15.287 L8.750,31.718 C8.750,33.528 7.278,35.000 5.469,35.000 C3.659,35.000 2.187,33.528 2.187,31.718 L2.187,15.287 C0.866,14.289 0.000,12.721 0.000,10.938 C0.000,9.153 0.866,7.586 2.187,6.586 L2.187,3.281 C2.187,1.472 3.659,-0.000 5.469,-0.000 C7.278,-0.000 8.750,1.472 8.750,3.281 L8.750,6.586 C10.071,7.586 10.937,9.153 10.937,10.938 C10.937,12.721 10.071,14.289 8.750,15.287 ZM4.375,31.718 C4.375,32.323 4.864,32.812 5.469,32.812 C6.073,32.812 6.562,32.323 6.562,31.718 L6.562,16.295 C6.209,16.368 5.844,16.406 5.469,16.406 C5.094,16.406 4.728,16.368 4.375,16.295 L4.375,31.718 ZM6.562,3.281 C6.562,2.677 6.073,2.187 5.469,2.187 C4.864,2.187 4.375,2.677 4.375,3.281 L4.375,5.578 C4.728,5.507 5.094,5.469 5.469,5.469 C5.844,5.469 6.209,5.507 6.562,5.578 L6.562,3.281 ZM8.603,10.017 C8.585,9.959 8.569,9.901 8.549,9.845 C8.446,9.557 8.312,9.284 8.136,9.039 C8.132,9.032 8.125,9.028 8.121,9.021 C7.931,8.763 7.704,8.530 7.447,8.336 C7.443,8.334 7.439,8.329 7.436,8.327 C7.172,8.130 6.879,7.970 6.562,7.857 C6.218,7.735 5.854,7.657 5.469,7.657 C5.083,7.657 4.719,7.735 4.375,7.857 C4.059,7.970 3.765,8.130 3.501,8.327 C3.498,8.329 3.495,8.334 3.491,8.336 C3.233,8.530 3.007,8.763 2.817,9.021 C2.812,9.028 2.806,9.032 2.802,9.039 C2.625,9.284 2.492,9.557 2.388,9.845 C2.368,9.901 2.352,9.959 2.335,10.017 C2.247,10.309 2.187,10.615 2.187,10.938 C2.187,11.258 2.247,11.563 2.335,11.856 C2.352,11.914 2.368,11.971 2.388,12.029 C2.492,12.318 2.625,12.591 2.802,12.835 C2.806,12.841 2.812,12.845 2.817,12.852 C3.007,13.112 3.233,13.343 3.491,13.537 C3.495,13.542 3.498,13.544 3.501,13.546 C3.765,13.745 4.059,13.905 4.375,14.016 C4.719,14.139 5.083,14.219 5.469,14.219 C5.854,14.219 6.218,14.139 6.562,14.016 C6.879,13.905 7.172,13.745 7.436,13.546 C7.439,13.544 7.443,13.542 7.447,13.537 C7.704,13.343 7.931,13.112 8.121,12.852 C8.125,12.845 8.132,12.841 8.136,12.835 C8.312,12.591 8.446,12.318 8.549,12.029 C8.569,11.971 8.585,11.914 8.603,11.856 C8.690,11.563 8.750,11.258 8.750,10.938 C8.750,10.615 8.690,10.309 8.603,10.017 Z" class="cls-1"/>
</svg>
