<svg xmlns="http://www.w3.org/2000/svg" xmlns:xlink="http://www.w3.org/1999/xlink" preserveAspectRatio="xMidYMid" width="39.28" height="39" viewBox="0 0 39.28 39">
  <defs>
    <style>
      .cls-1 {
        fill: #fff;
        fill-rule: evenodd;
      }
    </style>
  </defs>
  <path d="M35.888,2.447 L35.888,2.447 C36.289,2.447 36.572,2.520 36.718,2.576 C36.895,3.044 37.131,4.719 35.391,6.451 L27.293,14.504 L26.512,15.280 L26.576,16.376 C26.710,18.668 26.960,22.777 27.175,26.298 C27.365,29.433 27.545,32.394 27.557,32.645 C27.563,32.819 27.566,32.860 27.404,33.054 C27.041,33.493 26.363,34.236 25.793,34.853 C24.907,32.481 23.048,27.472 22.021,24.668 L20.700,21.060 L17.970,23.775 L12.950,28.577 L12.251,29.271 L12.229,30.253 C12.212,31.037 12.216,32.442 12.218,33.682 C12.221,34.546 12.223,35.331 12.217,35.764 C12.206,35.784 12.385,35.808 12.368,35.836 C12.261,35.666 12.146,35.482 12.025,35.291 C11.012,33.685 9.611,31.464 9.184,30.771 L8.871,30.264 L8.359,29.955 C6.493,28.835 4.427,27.541 3.165,26.733 C3.209,26.707 3.245,26.840 3.274,26.824 L3.355,26.824 C3.752,26.824 4.407,26.833 5.143,26.844 C6.104,26.857 7.194,26.872 8.029,26.872 C8.349,26.872 8.634,26.870 8.862,26.865 L9.849,26.842 L10.547,26.148 L15.381,21.189 L18.102,18.485 L14.491,17.164 C11.777,16.170 6.579,14.240 4.148,13.332 C4.771,12.761 5.524,12.083 5.962,11.721 C6.085,11.622 6.179,11.570 6.245,11.570 L6.332,11.572 C6.603,11.586 9.972,11.804 13.228,12.016 C16.686,12.240 20.588,12.494 22.806,12.633 L23.915,12.702 L24.701,11.921 L32.796,3.871 C34.043,2.632 35.268,2.447 35.888,2.447 M35.888,0.000 C34.435,0.000 32.651,0.555 31.057,2.141 L22.961,10.192 C18.401,9.904 6.722,9.136 6.433,9.128 C6.381,9.126 6.318,9.124 6.245,9.124 C5.852,9.124 5.170,9.199 4.396,9.836 C3.486,10.583 1.589,12.357 1.589,12.357 C1.132,12.814 0.900,13.379 0.955,13.910 C0.989,14.232 1.164,14.817 1.957,15.126 C2.439,15.312 10.103,18.165 13.642,19.460 L8.808,24.418 C8.594,24.423 8.328,24.426 8.029,24.426 C6.555,24.426 4.271,24.377 3.355,24.377 C3.234,24.377 3.137,24.377 3.068,24.380 C2.789,24.389 2.213,24.252 0.691,25.517 L0.583,25.617 C0.126,26.072 0.019,26.524 0.010,26.823 C-0.000,27.131 0.083,27.576 0.531,27.933 C0.800,28.149 4.254,30.348 7.086,32.050 C7.765,33.151 10.890,38.090 11.053,38.357 C11.291,38.758 11.680,38.985 12.146,39.000 C12.159,39.000 12.171,39.000 12.185,39.000 C12.637,39.000 13.102,38.776 13.558,38.338 C14.845,36.839 14.668,36.219 14.674,35.958 C14.694,35.141 14.659,31.679 14.689,30.307 L19.709,25.505 C20.992,29.011 23.797,36.553 23.985,37.034 C24.297,37.822 24.886,37.995 25.209,38.028 C25.262,38.033 25.316,38.036 25.369,38.036 C25.854,38.036 26.357,37.809 26.769,37.399 C26.769,37.399 28.547,35.522 29.303,34.610 C30.060,33.697 30.029,32.918 30.015,32.550 C30.009,32.296 29.297,20.745 29.032,16.234 L37.130,8.181 C40.000,5.326 39.544,1.885 38.478,0.827 C38.005,0.356 37.052,0.000 35.888,0.000 L35.888,0.000 Z" class="cls-1"/>
</svg>
